<?xml version="1.0" encoding="UTF-8"?>
<svg id="Laag_1" xmlns="http://www.w3.org/2000/svg" version="1.1" viewBox="0 0 195.6 215.5">
  <!-- Generator: Adobe Illustrator 29.0.1, SVG Export Plug-In . SVG Version: 2.1.0 Build 192)  -->
  <defs>
    <style>
      .st0 {
        fill: #ff3702;
      }
    </style>
  </defs>
  <path class="st0" d="M111.3,162.6l3.3-5.4c.9-1.5-.2-3.5-2-3.5h-33.8L171,5.5c1.5-2.4-.3-5.5-3.1-5.5h-65.6c-1.3,0-2.5.7-3.1,1.8L.5,160.6c-1.5,2.4.3,5.5,3.1,5.5h101.4c2.5,0,4.9-1.3,6.2-3.5Z"/>
  <path class="st0" d="M189.4,153.7h-60.6c-1.3,0-2.6.7-3.3,1.8l-23.1,41.4-7.8,12.8c-1.5,2.5.3,5.8,3.3,5.8h65.2c1.3,0,2.6-.7,3.3-1.8l28.2-50.7c2.5-4.1-.5-9.3-5.3-9.3Z"/>
</svg>