<?xml version="1.0" encoding="UTF-8"?>
<svg id="Laag_1" xmlns="http://www.w3.org/2000/svg" version="1.1" viewBox="0 0 334.3 69.5">
  <!-- Generator: Adobe Illustrator 29.0.1, SVG Export Plug-In . SVG Version: 2.1.0 Build 192)  -->
  <defs>
    <style>
      .st0 {
        fill: #ebe7e1;
      }

      .st1 {
        fill: #ff3702;
      }
    </style>
  </defs>
  <g>
    <path class="st0" d="M87.9,26.1v-15h6.3v30.1h-5.6l-.7-3.8c-2.3,2.8-5.4,4.2-9.3,4.2s-6.4-1.1-8.6-3.2c-2.2-2.2-3.3-5.6-3.3-10.4V11h6.3v16c0,5.9,2.3,8.9,7,8.9s4.3-.9,5.7-2.6c1.4-1.7,2.1-4.2,2.1-7.3Z"/>
    <path class="st0" d="M115.4,10.7c4.2,0,7.6,1.4,10.2,4.1,2.6,2.8,4,6.5,4,11.2s-1.3,8.3-4,11.1c-2.7,2.8-6.1,4.3-10.2,4.3s-7.6-1.5-9.7-4.6v16h-6.3V11h5.5l.8,4.5c2.4-3.2,5.7-4.8,9.8-4.8ZM108,33.3c1.6,1.9,3.7,2.8,6.3,2.8s4.7-.9,6.4-2.8c1.6-1.9,2.4-4.3,2.4-7.2s-.8-5.4-2.4-7.2c-1.6-1.8-3.7-2.8-6.4-2.8s-4.7.9-6.3,2.7c-1.6,1.8-2.4,4.2-2.4,7.1s.8,5.5,2.4,7.3Z"/>
    <path class="st0" d="M130.2,16.6v-5.6h5.2v-2.8c0-5.5,2.8-8.2,8.4-8.2h6v5.6h-5.2c-1,0-1.8.2-2.2.7-.5.5-.7,1.2-.7,2.2v2.5h8.2v5.6h-8v24.5h-6.4v-24.5h-5.2Z"/>
    <path class="st0" d="M176.1,37.2c-2.8,2.8-6.5,4.2-11.1,4.2s-8.3-1.4-11.1-4.2c-2.8-2.8-4.2-6.5-4.2-11.2s1.4-8.3,4.2-11.1c2.8-2.8,6.5-4.3,11.1-4.3s8.3,1.4,11.1,4.3c2.8,2.8,4.2,6.5,4.2,11.1s-1.4,8.3-4.2,11.2ZM158.6,33.3c1.6,1.9,3.7,2.8,6.4,2.8s4.8-.9,6.4-2.8c1.6-1.9,2.4-4.3,2.4-7.2s-.8-5.3-2.4-7.2c-1.6-1.9-3.8-2.8-6.4-2.8s-4.8.9-6.4,2.8c-1.6,1.9-2.4,4.3-2.4,7.2s.8,5.3,2.4,7.2Z"/>
    <path class="st0" d="M199.5,11h1.4v5.9h-2.8c-2.6,0-4.5.9-5.7,2.6-1.2,1.7-1.8,3.9-1.8,6.5v15.1h-6.3V11h5.6l.7,4.5c1.8-3,4.8-4.5,8.9-4.5Z"/>
    <path class="st0" d="M201.8,31.2h6.2c.1,1.6.8,2.9,2.2,3.9,1.3,1,3.1,1.5,5.3,1.5s3.5-.4,4.7-1.1c1.2-.7,1.8-1.7,1.8-2.9s-.1-1.4-.4-1.8c-.3-.5-.8-.9-1.5-1.1-.7-.3-1.4-.5-2-.6-.6-.1-1.6-.3-3-.4-.2,0-.4,0-.5,0-2-.2-3.6-.5-4.9-.8-1.3-.3-2.5-.8-3.8-1.4-1.2-.6-2.1-1.4-2.7-2.5-.6-1.1-.9-2.3-.9-3.8,0-2.8,1.1-5.1,3.4-6.8,2.3-1.7,5.3-2.6,8.9-2.5,3.8,0,6.8.8,9.2,2.5,2.4,1.7,3.6,4,3.8,7h-6.2c-.2-1.4-.9-2.5-2.1-3.4-1.2-.9-2.7-1.3-4.6-1.3s-3.4.4-4.5,1.1c-1.1.7-1.7,1.7-1.7,2.9s0,.9.2,1.2c.1.3.4.6.7.9.4.3.7.5,1,.6.3.2.8.3,1.5.4.7.1,1.2.2,1.7.3.5,0,1.2.1,2.1.3,1.6.2,2.9.4,4,.6,1.1.2,2.2.5,3.3,1,1.2.4,2.1.9,2.8,1.6.7.6,1.3,1.4,1.7,2.4.4,1,.7,2.1.7,3.4,0,2.8-1.2,5.1-3.6,6.8-2.4,1.7-5.4,2.6-9.2,2.6s-7.4-.9-9.9-2.7c-2.5-1.8-3.8-4.3-3.9-7.5Z"/>
    <path class="st0" d="M245.8,41.4c-4.5,0-8.2-1.4-10.9-4.1-2.7-2.8-4.1-6.5-4.1-11.2s1.4-8.4,4.1-11.2c2.8-2.8,6.4-4.2,10.9-4.2s6.9,1,9.3,2.9c2.4,2,3.9,4.7,4.5,8.2h-6.6c-.4-1.8-1.3-3.2-2.5-4.2-1.3-1-2.8-1.5-4.8-1.5s-4.6.9-6.1,2.8c-1.5,1.9-2.3,4.3-2.3,7.2s.8,5.3,2.3,7.2c1.5,1.8,3.6,2.8,6.1,2.8s3.5-.5,4.8-1.5c1.3-1,2.1-2.4,2.5-4.2h6.7c-.6,3.4-2.1,6.2-4.6,8.1-2.5,2-5.6,3-9.4,3Z"/>
    <path class="st0" d="M291,35.6h1.3v5.5h-3.3c-3.7,0-5.5-1.6-5.5-4.8-2.3,3.4-5.6,5.2-9.9,5.2s-6.1-.8-8.1-2.3c-2-1.6-3.1-3.7-3.1-6.5s1.1-5.5,3.3-7.1c2.2-1.7,5.4-2.5,9.6-2.5h7.6v-1.8c0-1.7-.6-3-1.7-4-1.2-1-2.8-1.4-4.8-1.4s-3.4.4-4.6,1.2c-1.2.8-1.9,1.9-2.2,3.2h-6.2c.3-2.9,1.7-5.3,4-7,2.4-1.7,5.4-2.6,9.2-2.6s7.1.9,9.3,2.8c2.2,1.9,3.3,4.6,3.3,8.1v12c0,.7.2,1.3.5,1.5.3.3.8.4,1.5.4ZM282.8,28.8v-1.1h-7.9c-4.1,0-6.1,1.5-6.1,4.5s.5,2.3,1.5,3.1c1,.8,2.4,1.2,4.1,1.2,2.6,0,4.7-.7,6.1-2.1s2.2-3.3,2.3-5.6Z"/>
    <path class="st0" d="M294.6,41.1V0h6.3v41.1h-6.3Z"/>
    <path class="st0" d="M320.2,41.4c-4.7,0-8.4-1.4-11.2-4.2-2.8-2.8-4.2-6.5-4.2-11.1s1.4-8.3,4.1-11.2c2.7-2.8,6.3-4.3,10.7-4.3s7.9,1.3,10.5,3.9c2.7,2.6,4.1,6.1,4.1,10.4,0,.8,0,1.6-.2,2.4h-22.7v.4c0,2.6.9,4.6,2.4,6.2,1.5,1.5,3.5,2.3,6,2.3s3.6-.5,4.9-1.4c1.3-.9,2.2-2.2,2.6-3.9h6.3c-.5,3.1-2,5.6-4.5,7.5-2.4,2-5.5,2.9-9.1,2.9ZM311.7,22.8h16c-.3-2.2-1.1-3.9-2.6-5.1-1.4-1.2-3.3-1.8-5.5-1.8s-3.9.6-5.4,1.9c-1.5,1.3-2.4,3-2.6,5.1Z"/>
  </g>
  <g>
    <path class="st0" d="M237.2,65.8c-1.9,0-3.5-.6-4.6-1.8-1.1-1.2-1.7-2.9-1.7-4.9s.6-3.7,1.7-4.9c1.2-1.2,2.7-1.9,4.7-1.9s2.8.4,3.8,1.3c1,.8,1.6,2,1.9,3.4h-2.3c-.2-.8-.6-1.5-1.2-2-.6-.5-1.4-.7-2.3-.7s-2.3.4-3,1.3c-.7.9-1.1,2.1-1.1,3.5s.4,2.6,1.1,3.5c.7.9,1.7,1.3,2.9,1.3s1.7-.2,2.3-.7c.6-.5,1-1.1,1.2-2h2.3c-.2,1.4-.8,2.5-1.9,3.4-1,.8-2.3,1.3-3.9,1.3Z"/>
    <path class="st0" d="M252.4,64.5c-.9.9-2.1,1.4-3.6,1.4s-2.7-.5-3.6-1.4c-.9-.9-1.4-2.1-1.4-3.6s.5-2.7,1.4-3.6,2.1-1.4,3.6-1.4,2.7.5,3.6,1.4c.9.9,1.4,2.1,1.4,3.6s-.5,2.7-1.4,3.6ZM246.7,63.2c.5.6,1.2.9,2.1.9s1.6-.3,2.1-.9c.5-.6.8-1.4.8-2.3s-.3-1.7-.8-2.3c-.5-.6-1.2-.9-2.1-.9s-1.6.3-2.1.9c-.5.6-.8,1.4-.8,2.3s.3,1.7.8,2.3Z"/>
    <path class="st0" d="M260.2,55.9c1.2,0,2.1.4,2.8,1.1.7.7,1.1,1.8,1.1,3.4v5.4h-2.1v-5.2c0-1.9-.8-2.8-2.3-2.8s-1.4.3-1.9.8c-.5.6-.7,1.3-.7,2.3v4.9h-2.1v-9.7h1.8l.2,1.3c.7-.9,1.8-1.4,3.1-1.4Z"/>
    <path class="st0" d="M265.2,62.5h2c0,.5.3.9.7,1.3.4.3,1,.5,1.7.5s1.1-.1,1.5-.3c.4-.2.6-.5.6-.9s0-.4-.1-.6-.3-.3-.5-.4c-.2,0-.5-.2-.7-.2-.2,0-.5,0-1-.1,0,0-.1,0-.2,0-.6,0-1.2-.2-1.6-.3-.4-.1-.8-.3-1.2-.4s-.7-.5-.9-.8-.3-.8-.3-1.2c0-.9.4-1.6,1.1-2.2.7-.6,1.7-.8,2.9-.8,1.2,0,2.2.3,3,.8.8.5,1.2,1.3,1.2,2.3h-2c0-.5-.3-.8-.7-1.1-.4-.3-.9-.4-1.5-.4s-1.1.1-1.5.3c-.4.2-.6.5-.6.9s0,.3,0,.4c0,.1.1.2.2.3.1,0,.2.1.3.2.1,0,.3,0,.5.1.2,0,.4,0,.6,0s.4,0,.7,0c.5,0,.9.1,1.3.2s.7.2,1.1.3c.4.1.7.3.9.5.2.2.4.5.6.8.1.3.2.7.2,1.1,0,.9-.4,1.6-1.2,2.2-.8.6-1.8.8-3,.8s-2.4-.3-3.2-.9c-.8-.6-1.2-1.4-1.3-2.4Z"/>
    <path class="st0" d="M281.6,60.8v-4.9h2.1v9.7h-1.8l-.2-1.2c-.7.9-1.7,1.4-3,1.4s-2.1-.3-2.8-1c-.7-.7-1.1-1.8-1.1-3.4v-5.4h2.1v5.2c0,1.9.8,2.9,2.3,2.9s1.4-.3,1.8-.8c.4-.6.7-1.3.7-2.3Z"/>
    <path class="st0" d="M285.3,65.7v-13.3h2.1v13.3h-2.1Z"/>
    <path class="st0" d="M289.7,63.1v-5.3h-1.7v-1.8h1.7v-2.7h2.1v2.7h2.4v1.8h-2.4v5.1c0,.4,0,.6.2.8.2.2.4.2.8.2h1.4v1.8h-1.9c-.9,0-1.6-.2-2-.6-.4-.4-.6-1.1-.6-2Z"/>
    <path class="st0" d="M304,63.9h.4v1.8h-1.1c-1.2,0-1.8-.5-1.8-1.6-.7,1.1-1.8,1.7-3.2,1.7s-2-.3-2.6-.8c-.7-.5-1-1.2-1-2.1s.4-1.8,1.1-2.3,1.7-.8,3.1-.8h2.5v-.6c0-.5-.2-1-.6-1.3-.4-.3-.9-.5-1.6-.5s-1.1.1-1.5.4c-.4.3-.6.6-.7,1h-2c.1-1,.5-1.7,1.3-2.3.8-.6,1.8-.8,3-.8s2.3.3,3,.9c.7.6,1.1,1.5,1.1,2.6v3.9c0,.2,0,.4.2.5.1,0,.3.1.5.1ZM301.4,61.7v-.3h-2.5c-1.3,0-2,.5-2,1.5s.2.8.5,1,.8.4,1.3.4c.8,0,1.5-.2,2-.7.5-.5.7-1.1.7-1.8Z"/>
    <path class="st0" d="M310.3,55.9c1.2,0,2.1.4,2.8,1.1.7.7,1.1,1.8,1.1,3.4v5.4h-2.1v-5.2c0-1.9-.8-2.8-2.3-2.8s-1.4.3-1.9.8c-.5.6-.7,1.3-.7,2.3v4.9h-2.1v-9.7h1.8l.2,1.3c.7-.9,1.8-1.4,3.1-1.4Z"/>
    <path class="st0" d="M320.1,65.8c-1.5,0-2.6-.4-3.5-1.3-.9-.9-1.3-2.1-1.3-3.6s.4-2.7,1.3-3.6c.9-.9,2.1-1.4,3.5-1.4s2.2.3,3,1,1.3,1.5,1.5,2.6h-2.1c-.1-.6-.4-1-.8-1.4-.4-.3-.9-.5-1.5-.5s-1.5.3-2,.9c-.5.6-.8,1.4-.8,2.3s.2,1.7.8,2.3c.5.6,1.2.9,2,.9s1.1-.2,1.5-.5c.4-.3.7-.8.8-1.4h2.2c-.2,1.1-.7,2-1.5,2.6-.8.6-1.8,1-3,1Z"/>
    <path class="st0" d="M328.3,65.8l-3.8-9.8h2.2l2.7,7.4,2.6-7.4h2.2l-4.4,11.3c-.3.9-.7,1.5-1,1.8-.3.3-.8.5-1.5.5h-2.2v-1.8h1.4c.4,0,.7,0,.8-.2.2-.1.3-.4.5-.8l.4-1Z"/>
  </g>
  <g>
    <path class="st1" d="M27.3,39.9l.8-1.3c.2-.4,0-.9-.5-.9h-8.3L42,1.3c.4-.6,0-1.4-.8-1.4h-16.1c-.3,0-.6.2-.8.4L.1,39.4c-.4.6,0,1.3.8,1.3h24.9c.6,0,1.2-.3,1.5-.8Z"/>
    <path class="st1" d="M46.5,37.7h-14.9c-.3,0-.6.2-.8.4l-5.7,10.2-1.9,3.1c-.4.6,0,1.4.8,1.4h16c.3,0,.6-.2.8-.5l6.9-12.4c.6-1-.1-2.3-1.3-2.3Z"/>
  </g>
</svg>